<svg width="44" height="44" viewBox="0 0 44 44" fill="none" xmlns="http://www.w3.org/2000/svg">
<path d="M30.0782 15.4641C30.0782 15.4641 30.0782 15.4719 30.0782 15.4758L25.5313 30.4711C25.4625 30.7147 25.3208 30.9313 25.1253 31.0921C24.9298 31.2528 24.6898 31.3499 24.4376 31.3703C24.4016 31.3734 24.3657 31.375 24.3297 31.375C24.0933 31.3757 23.8616 31.3088 23.662 31.1822C23.4624 31.0555 23.3032 30.8744 23.2032 30.6602L20.4133 24.7703C20.3858 24.7121 20.3769 24.6467 20.388 24.5832C20.399 24.5197 20.4294 24.4612 20.4751 24.4156L24.9485 19.9414C25.0608 19.8233 25.1224 19.6659 25.1203 19.5029C25.1182 19.34 25.0526 19.1842 24.9373 19.069C24.8221 18.9537 24.6664 18.8881 24.5034 18.886C24.3404 18.8839 24.1831 18.9456 24.0649 19.0578L19.5844 23.5313C19.5389 23.5769 19.4804 23.6073 19.4169 23.6183C19.3534 23.6294 19.288 23.6205 19.2297 23.593L13.3704 20.8172C13.1402 20.7118 12.9466 20.5404 12.8139 20.3249C12.6812 20.1093 12.6155 19.8592 12.6251 19.6063C12.6378 19.3463 12.7319 19.0969 12.8941 18.8933C13.0563 18.6898 13.2784 18.5423 13.529 18.4719L28.5243 13.925H28.536C28.7495 13.865 28.9751 13.8629 29.1897 13.9189C29.4043 13.9749 29.6001 14.087 29.7571 14.2436C29.914 14.4003 30.0265 14.5959 30.0829 14.8104C30.1394 15.0248 30.1377 15.2504 30.0782 15.4641Z" fill="black"/>
</svg>
