<svg width="44" height="44" viewBox="0 0 44 44" fill="none" xmlns="http://www.w3.org/2000/svg">
<path d="M30.875 20.25V20.875C30.8737 21.9325 30.4898 22.9538 29.7942 23.7504C29.0986 24.5469 28.1383 25.0649 27.0906 25.2086C27.5183 25.7558 27.7504 26.4305 27.75 27.125V30.25C27.75 30.4158 27.6842 30.5747 27.5669 30.692C27.4497 30.8092 27.2908 30.875 27.125 30.875H22.125C21.9592 30.875 21.8003 30.8092 21.6831 30.692C21.5658 30.5747 21.5 30.4158 21.5 30.25V29H19.625C18.7962 29 18.0013 28.6708 17.4153 28.0847C16.8292 27.4987 16.5 26.7038 16.5 25.875C16.5 25.3777 16.3025 24.9008 15.9508 24.5492C15.5992 24.1976 15.1223 24 14.625 24C14.4592 24 14.3003 23.9342 14.1831 23.817C14.0658 23.6997 14 23.5408 14 23.375C14 23.2092 14.0658 23.0503 14.1831 22.9331C14.3003 22.8159 14.4592 22.75 14.625 22.75C15.0354 22.75 15.4417 22.8308 15.8209 22.9879C16.2 23.1449 16.5445 23.3751 16.8347 23.6653C17.1249 23.9555 17.3551 24.3 17.5121 24.6791C17.6692 25.0583 17.75 25.4646 17.75 25.875C17.75 26.3723 17.9475 26.8492 18.2992 27.2008C18.6508 27.5525 19.1277 27.75 19.625 27.75H21.5V27.125C21.4996 26.4305 21.7317 25.7558 22.1594 25.2086C21.1117 25.0649 20.1514 24.5469 19.4558 23.7504C18.7602 22.9538 18.3763 21.9325 18.375 20.875V20.25C18.3828 19.4733 18.5896 18.7115 18.9758 18.0375C18.7847 17.4213 18.7235 16.7721 18.7958 16.131C18.8681 15.4899 19.0725 14.8707 19.3961 14.3125C19.451 14.2175 19.5299 14.1386 19.6249 14.0837C19.72 14.0289 19.8278 14 19.9375 14C20.6655 13.9985 21.3837 14.1672 22.0348 14.4928C22.686 14.8184 23.2519 15.2917 23.6875 15.875H25.5625C25.9981 15.2917 26.564 14.8184 27.2151 14.4928C27.8663 14.1672 28.5845 13.9985 29.3125 14C29.4222 14 29.53 14.0289 29.6251 14.0837C29.7201 14.1386 29.799 14.2175 29.8539 14.3125C30.1775 14.8707 30.3819 15.4899 30.4541 16.131C30.5263 16.7722 30.4648 17.4213 30.2734 18.0375C30.6603 18.7112 30.8675 19.4731 30.875 20.25Z" fill="black"/>
</svg>
