<svg width="64" height="64" viewBox="0 0 64 64" fill="none" xmlns="http://www.w3.org/2000/svg">
<path d="M25.3333 15.3333L28.6667 18.6667M32 25.3333C30.159 25.3333 28.6667 23.8409 28.6667 22C28.6667 20.159 30.159 18.6667 32 18.6667C33.8409 18.6667 35.3333 20.159 35.3333 22C35.3333 23.8409 33.8409 25.3333 32 25.3333ZM32 25.3333V38.6667M35.3333 25.3333L40.3333 30.3333M32 38.6667C33.8409 38.6667 35.3333 40.159 35.3333 42C35.3333 43.8409 33.8409 45.3333 32 45.3333C30.159 45.3333 28.6667 43.8409 28.6667 42C28.6667 40.159 30.159 38.6667 32 38.6667ZM29.643 11.0237L11.0237 29.643C9.72193 30.9447 9.72193 33.0553 11.0237 34.357L29.643 52.9763C30.9447 54.278 33.0553 54.278 34.357 52.9763L52.9763 34.357C54.278 33.0553 54.278 30.9447 52.9763 29.643L34.357 11.0237C33.0553 9.72193 30.9447 9.72193 29.643 11.0237ZM42 35.3333C40.159 35.3333 38.6667 33.8409 38.6667 32C38.6667 30.159 40.159 28.6667 42 28.6667C43.8409 28.6667 45.3333 30.159 45.3333 32C45.3333 33.8409 43.8409 35.3333 42 35.3333Z" stroke="black" stroke-width="3"/>
</svg>
