<svg width="64" height="64" viewBox="0 0 64 64" fill="none" xmlns="http://www.w3.org/2000/svg">
<path d="M8.66675 8.66675V7.16675C8.24727 7.16675 7.84696 7.3424 7.56292 7.65108C7.27889 7.95977 7.13709 8.37329 7.17193 8.79132L8.66675 8.66675ZM55.3334 8.66675L56.8282 8.79132C56.8631 8.37329 56.7213 7.95977 56.4372 7.65108C56.1532 7.3424 55.7529 7.16675 55.3334 7.16675V8.66675ZM52.0001 48.6667L52.4744 50.0898C53.0437 49.9 53.4451 49.3893 53.4949 48.7913L52.0001 48.6667ZM32.0001 55.3334L31.5257 56.7564C31.8336 56.8591 32.1665 56.8591 32.4744 56.7564L32.0001 55.3334ZM12.0001 48.6667L10.5053 48.7913C10.5551 49.3893 10.9565 49.9 11.5257 50.0898L12.0001 48.6667ZM22.0001 18.6667V17.1667H20.5001V18.6667H22.0001ZM22.0001 28.6667H20.5001V30.1667H22.0001V28.6667ZM42.0001 28.6667H43.5001V27.1667H42.0001V28.6667ZM42.0001 38.6667L42.4744 40.0898L43.5001 39.7479V38.6667H42.0001ZM32.0001 42.0001L31.5257 43.4231L32.0001 43.5812L32.4744 43.4231L32.0001 42.0001ZM22.0001 38.6667H20.5001V39.7479L21.5257 40.0898L22.0001 38.6667ZM8.66675 10.1667H55.3334V7.16675H8.66675V10.1667ZM53.8386 8.54218L50.5053 48.5422L53.4949 48.7913L56.8282 8.79132L53.8386 8.54218ZM51.5257 47.2437L31.5257 53.9104L32.4744 56.7564L52.4744 50.0898L51.5257 47.2437ZM32.4744 53.9104L12.4744 47.2437L11.5257 50.0898L31.5257 56.7564L32.4744 53.9104ZM13.4949 48.5422L10.1616 8.54218L7.17193 8.79132L10.5053 48.7913L13.4949 48.5422ZM43.6667 17.1667H22.0001V20.1667H43.6667V17.1667ZM20.5001 18.6667V28.6667H23.5001V18.6667H20.5001ZM22.0001 30.1667H42.0001V27.1667H22.0001V30.1667ZM40.5001 28.6667V38.6667H43.5001V28.6667H40.5001ZM41.5257 37.2437L31.5257 40.5771L32.4744 43.4231L42.4744 40.0898L41.5257 37.2437ZM32.4744 40.5771L22.4744 37.2437L21.5257 40.0898L31.5257 43.4231L32.4744 40.5771ZM23.5001 38.6667V33.6667H20.5001V38.6667H23.5001Z" fill="black"/>
</svg>
