<svg width="64" height="64" viewBox="0 0 64 64" fill="none" xmlns="http://www.w3.org/2000/svg">
<path d="M55.3334 32.2796C55.3334 37.8024 44.8867 42.2796 32.0001 42.2796C19.1134 42.2796 8.66675 37.8024 8.66675 32.2796C8.66675 26.7567 19.1134 22.2796 32.0001 22.2796C44.8867 22.2796 55.3334 26.7567 55.3334 32.2796Z" stroke="black" stroke-width="3"/>
<path d="M20.8864 52.7963C25.7426 55.4268 34.6549 48.3736 40.7927 37.0426C46.9305 25.7115 47.9695 14.3934 43.1133 11.7629C38.2571 9.13245 29.3448 16.1857 23.207 27.5167C17.0692 38.8478 16.0302 50.1659 20.8864 52.7963Z" stroke="black" stroke-width="3"/>
<path d="M43.1134 52.7963C38.2572 55.4268 29.3448 48.3736 23.207 37.0426C17.0692 25.7115 16.0303 14.3934 20.8864 11.7629C25.7426 9.13245 34.655 16.1857 40.7928 27.5167C46.9306 38.8478 47.9695 50.1659 43.1134 52.7963Z" stroke="black" stroke-width="3"/>
<path d="M28.6667 32.2796C28.6667 34.1205 30.1591 35.6129 32.0001 35.6129C33.841 35.6129 35.3334 34.1205 35.3334 32.2796C35.3334 30.4386 33.841 28.9462 32.0001 28.9462C30.1591 28.9462 28.6667 30.4386 28.6667 32.2796Z" stroke="black" stroke-width="3"/>
</svg>
