<svg width="64" height="64" viewBox="0 0 64 64" fill="none" xmlns="http://www.w3.org/2000/svg">
<path d="M27.1015 12.8399L27.1022 12.841C27.1555 12.9206 27.1885 13.0122 27.1982 13.1075L28.6905 12.9566L27.1982 13.1075C27.2078 13.2027 27.1939 13.2988 27.1577 13.3874C27.1576 13.3876 27.1576 13.3877 27.1575 13.3879L11.6896 51.0577C11.6382 51.1827 11.545 51.2861 11.426 51.35C11.3069 51.414 11.1693 51.4347 11.0367 51.4085C10.9041 51.3824 10.7847 51.311 10.6988 51.2066C10.613 51.1022 10.5661 50.9713 10.566 50.8362C10.566 50.8361 10.566 50.8361 10.566 50.836L10.566 13.1654L10.566 13.165C10.566 13.0884 10.5811 13.0126 10.6104 12.9419C10.6397 12.8711 10.6826 12.8069 10.7367 12.7527C10.7909 12.6986 10.8551 12.6557 10.9259 12.6264C10.9966 12.5971 11.0724 12.582 11.149 12.582H11.1494L26.6177 12.582L26.6183 12.582C26.7138 12.582 26.8079 12.6055 26.8922 12.6505C26.9764 12.6955 27.0483 12.7606 27.1015 12.8399ZM27.5985 11.3272C27.2967 11.1661 26.9598 11.0819 26.6177 11.082L28.3481 12.0057C28.1578 11.7214 27.9003 11.4883 27.5985 11.3272ZM52.816 12.582L52.8164 12.582C52.893 12.582 52.9688 12.5971 53.0395 12.6264L53.6134 11.2405L53.0395 12.6264C53.1103 12.6557 53.1745 12.6986 53.2287 12.7527C53.2828 12.8069 53.3258 12.8711 53.355 12.9419C53.3843 13.0126 53.3994 13.0884 53.3994 13.165V13.1654V50.3512C53.3993 50.4862 53.3525 50.617 53.267 50.7215C53.1825 50.8248 53.0653 50.8961 52.9348 50.9236C52.8954 50.931 52.8554 50.935 52.8153 50.9354C52.7008 50.9354 52.5889 50.9016 52.4936 50.8382C52.3983 50.7748 52.3239 50.6847 52.2796 50.5792L52.2789 50.5775L36.6175 13.3915C36.5802 13.3029 36.5655 13.2064 36.5745 13.1106C36.5835 13.0149 36.6161 12.9228 36.6693 12.8427L35.4196 12.013L36.6693 12.8427C36.7225 12.7626 36.7947 12.6968 36.8794 12.6514C36.9641 12.6059 37.0587 12.5821 37.1548 12.582C37.1549 12.582 37.1549 12.582 37.155 12.582L52.816 12.582ZM32.5743 27.3634L32.5744 27.3636L41.3695 50.6298C41.4028 50.7181 41.4143 50.8132 41.4028 50.9069C41.3913 51.0006 41.3573 51.0901 41.3036 51.1678C41.2499 51.2455 41.1782 51.309 41.0946 51.3528C41.011 51.3967 40.918 51.4196 40.8237 51.4196C40.8236 51.4196 40.8236 51.4196 40.8235 51.4196H35.3804H35.38C35.2726 51.4196 35.1673 51.3899 35.0758 51.3337C34.9842 51.2776 34.9101 51.1972 34.8615 51.1014L34.8606 51.0997L31.6888 44.87L31.2716 44.0506H30.3521H25.6554C25.56 44.0506 25.4661 44.0272 25.3819 43.9825C25.2976 43.9378 25.2256 43.8731 25.1722 43.7942L23.9298 44.6346L25.1722 43.7941C25.1188 43.7152 25.0855 43.6243 25.0753 43.5295C25.0652 43.4346 25.0784 43.3388 25.1139 43.2502L31.487 27.3527L31.487 27.3526C31.5304 27.2445 31.6051 27.1518 31.7016 27.0865C31.798 27.0213 31.9119 26.9864 32.0283 26.9864H32.0285H32.0394C32.1552 26.9885 32.2677 27.025 32.3627 27.0914C32.459 27.1586 32.5328 27.2535 32.5743 27.3634Z" stroke="black" stroke-width="3"/>
</svg>
