<svg width="64" height="64" viewBox="0 0 64 64" fill="none" xmlns="http://www.w3.org/2000/svg">
<path d="M48.6666 33.6667V33.1112C48.6666 30.6566 46.6768 28.6667 44.2222 28.6667H40.3333C37.5719 28.6667 35.3333 30.9053 35.3333 33.6667C35.3333 36.4282 37.5719 38.6667 40.3333 38.6667H43.6666C46.4281 38.6667 48.6666 40.9053 48.6666 43.6667C48.6666 46.4282 46.4281 48.6667 43.6666 48.6667H40.3333C37.5719 48.6667 35.3333 46.4282 35.3333 43.6667M28.6666 27.0001V43.6667C28.6666 46.4282 26.4281 48.6667 23.6666 48.6667C20.9052 48.6667 18.6666 46.4282 18.6666 43.6667M8.66663 8.66675H55.3333V55.3334H8.66663V8.66675Z" stroke="black" stroke-width="3"/>
</svg>
